<svg width="89" height="92" viewBox="0 0 89 92" fill="none" xmlns="http://www.w3.org/2000/svg">
<ellipse cx="44.5" cy="46" rx="44.5" ry="46" fill="#71559A"/>
<ellipse cx="44.5" cy="46" rx="44.5" ry="46" fill="#71559A"/>
<ellipse cx="44.9565" cy="46" rx="30.9565" ry="32" fill="white"/>
<path d="M44.2968 14C26.4528 14 12 28.4528 12 46.2968C12 60.5881 21.2449 72.659 34.0829 76.9383C35.6977 77.2209 36.3033 76.252 36.3033 75.4042C36.3033 74.6372 36.2629 72.0938 36.2629 69.3889C28.1484 70.8827 26.0491 67.4108 25.4032 65.5941C25.0398 64.6655 23.4653 61.7992 22.0927 61.0322C20.9623 60.4266 19.3475 58.9329 22.0524 58.8925C24.5957 58.8521 26.4124 61.234 27.018 62.2029C29.9247 67.0878 34.5674 65.7152 36.4244 64.8674C36.707 62.7681 37.5548 61.3551 38.4833 60.5477C31.2973 59.7403 23.7883 56.9547 23.7883 44.6012C23.7883 41.0889 25.0398 38.1822 27.0987 35.9214C26.7758 35.114 25.6454 31.8036 27.4217 27.3628C27.4217 27.3628 30.1266 26.515 36.3033 30.6732C38.887 29.9465 41.6323 29.5832 44.3775 29.5832C47.1227 29.5832 49.8679 29.9465 52.4517 30.6732C58.6284 26.4746 61.3333 27.3628 61.3333 27.3628C63.1096 31.8036 61.9792 35.114 61.6563 35.9214C63.7152 38.1822 64.9667 41.0485 64.9667 44.6012C64.9667 56.9951 57.4173 59.7403 50.2313 60.5477C51.402 61.557 52.4113 63.4948 52.4113 66.5226C52.4113 70.8423 52.3709 74.3142 52.3709 75.4042C52.3709 76.252 52.9765 77.2613 54.5913 76.9383C61.0032 74.7744 66.5748 70.6539 70.5218 65.1571C74.4688 59.6602 76.5924 53.0639 76.5935 46.2968C76.5935 28.4528 62.1407 14 44.2968 14Z" fill="#71559A"/>
</svg>
