<svg width="89" height="92" viewBox="0 0 89 92" fill="none" xmlns="http://www.w3.org/2000/svg">
<ellipse cx="44.5" cy="46" rx="44.5" ry="46" fill="#F4F4F4"/>
<ellipse cx="44.5" cy="46" rx="44.5" ry="46" fill="#F4F4F4"/>
<ellipse cx="44.9565" cy="46" rx="30.9565" ry="32" fill="#0B0B0B"/>
<g clip-path="url(#clip0_57_38)">
<path d="M13 18.584C13 16.052 15.104 14 17.7 14H72.3C74.896 14 77 16.052 77 18.584V73.416C77 75.948 74.896 78 72.3 78H17.7C15.104 78 13 75.948 13 73.416V18.584ZM32.772 67.576V38.676H23.168V67.576H32.772ZM27.972 34.728C31.32 34.728 33.404 32.512 33.404 29.736C33.344 26.9 31.324 24.744 28.036 24.744C24.748 24.744 22.6 26.904 22.6 29.736C22.6 32.512 24.684 34.728 27.908 34.728H27.972ZM47.604 67.576V51.436C47.604 50.572 47.668 49.708 47.924 49.092C48.616 47.368 50.196 45.58 52.852 45.58C56.328 45.58 57.716 48.228 57.716 52.116V67.576H67.32V51C67.32 42.12 62.584 37.992 56.264 37.992C51.168 37.992 48.884 40.792 47.604 42.764V42.864H47.54C47.5612 42.8306 47.5826 42.7973 47.604 42.764V38.676H38.004C38.124 41.388 38.004 67.576 38.004 67.576H47.604Z" fill="#F4F4F4"/>
</g>
<defs>
<clipPath id="clip0_57_38">
<rect width="64" height="64" fill="white" transform="translate(13 14)"/>
</clipPath>
</defs>
</svg>
