<svg width="89" height="92" viewBox="0 0 89 92" fill="none" xmlns="http://www.w3.org/2000/svg">
<ellipse cx="44.5" cy="46" rx="44.5" ry="46" fill="#F4F4F4"/>
<ellipse cx="44.5" cy="46" rx="44.5" ry="46" fill="#F4F4F4"/>
<path d="M20 34C20 32.4087 20.6321 30.8826 21.7574 29.7574C22.8826 28.6321 24.4087 28 26 28H62C63.5913 28 65.1174 28.6321 66.2426 29.7574C67.3679 30.8826 68 32.4087 68 34V58C68 59.5913 67.3679 61.1174 66.2426 62.2426C65.1174 63.3679 63.5913 64 62 64H26C24.4087 64 22.8826 63.3679 21.7574 62.2426C20.6321 61.1174 20 59.5913 20 58V34ZM26 31C25.2044 31 24.4413 31.3161 23.8787 31.8787C23.3161 32.4413 23 33.2044 23 34V34.651L44 47.251L65 34.651V34C65 33.2044 64.6839 32.4413 64.1213 31.8787C63.5587 31.3161 62.7956 31 62 31H26ZM65 38.149L50.876 46.624L65 55.315V38.149ZM64.898 58.777L47.978 48.364L44 50.749L40.022 48.364L23.102 58.774C23.2725 59.4124 23.6489 59.9766 24.173 60.3792C24.697 60.7817 25.3392 60.9999 26 61H62C62.6604 61.0001 63.3023 60.7823 63.8263 60.3803C64.3503 59.9784 64.727 59.4148 64.898 58.777ZM23 55.315L37.124 46.624L23 38.149V55.315Z" fill="#0B0B0B"/>
</svg>
